<svg xmlns="http://www.w3.org/2000/svg" version="1.1" xmlns:xlink="http://www.w3.org/1999/xlink" xmlns:svgjs="http://svgjs.com/svgjs" width="1440" height="560" preserveAspectRatio="none" viewBox="0 0 1440 560">
    <g class="all" mask="url(&quot;#SvgjsMask1003&quot;)" fill="none">
        <path d="M398.28 0C425.21 38.11 371.95 73.49 378.93 140C382.81 176.97 388.28 202.26 420 206.96C478.81 215.68 494.5 193.84 560 166.85C575.76 160.36 582.53 155.94 582.53 140C582.53 99.91 583.04 89.63 560 54.78C536.77 19.63 490 15.32 490 0C490 -12.07 525 0 560 0C630 0 630 0 700 0C770 0 770 0 840 0C910 0 910 0 980 0C1038.13 0 1040.38 -6.9 1096.27 0C1110.38 1.74 1108.43 17.28 1120 17.28C1130.59 17.28 1127.73 1.59 1140.59 0C1197.73 -7.05 1200.3 0 1260 0C1330 0 1330 0 1400 0C1470 0 1505 -35 1540 0C1575 35 1540 70 1540 140C1540 190.83 1551.17 195.03 1540 241.67C1534.4 265.03 1506.46 261.26 1506.46 280C1506.46 297.74 1534.74 292.65 1540 314.62C1551.51 362.65 1540 367.31 1540 420C1540 490 1569.65 519.65 1540 560C1518.21 589.65 1484.44 570.96 1437.11 560C1414.44 554.75 1418.05 527.58 1400 527.58C1383.11 527.58 1388.28 555.13 1367.23 560C1318.28 571.34 1313.61 560 1260 560C1190 560 1190 560 1120 560C1050 560 1050 560 980 560C910 560 910 560 840 560C770 560 770 560 700 560C645.71 560 626.62 585.81 591.43 560C556.62 534.47 584.7 457.33 560 457.33C530.48 457.33 529.95 525.57 483 560C459.95 576.9 451.5 560 420 560C350 560 350 560 280 560C217.37 560 216.15 564.16 154.74 560C146.15 559.42 146.64 550.51 140 550.51C135.33 550.51 138.09 559.59 132.11 560C68.09 564.34 32.07 593.99 0 560C-33.99 523.99 0 490 0 420C0 350 0 350 0 280C0 210 0 210 0 140C0 70 -35 35 0 0C35 -35 70 0 140 0C210 0 210 0 280 0C339.14 0 375.74 -31.89 398.28 0" stroke="rgba(253, 223, 53, 1)" stroke-width="2"></path>
        <path d="M140 252.39C92.16 257.32 46.67 266.01 46.67 280C46.67 294.02 92.13 304.2 140 308.41C208.8 314.46 211.66 311.08 280 300.53C303.66 296.88 324 290.97 324 280C324 268.67 304.26 259.58 280 255.94C212.26 245.77 208.83 245.29 140 252.39" stroke="rgba(51, 121, 194, 0.58)" stroke-width="2"></path>
        <path d="M1120 249.23C1090.59 249.23 1065.1 259.46 1065.1 280C1065.1 308.18 1086.44 346.67 1120 346.67C1172.22 346.67 1236.67 305.67 1236.67 280C1236.67 256.95 1176.38 249.23 1120 249.23" stroke="rgba(253, 223, 53, 1)" stroke-width="2"></path>
        <path d="M337.93 0C356.42 49.52 350.66 76.1 332.27 140C321.7 176.72 315.1 189.73 280 201.25C218.97 221.28 209.91 205.13 140 203.1C69.91 201.06 50.79 215.99 0 193.1C-19.21 184.44 0 166.55 0 140C0 70 -35 35 0 0C35 -35 70 0 140 0C210 0 210 0 280 0C308.97 0 330.29 -20.48 337.93 0" stroke="rgba(253, 223, 53, 1)" stroke-width="2"></path>
        <path d="M622.76 140C635.75 76.5 580.93 41.66 603.92 0C619.55 -28.34 651.96 0 700 0C747.12 0 762.42 -23.51 794.23 0C832.42 28.23 814.66 103.48 840 103.48C866.57 103.48 856.65 30.6 898.05 0C926.65 -21.14 939.03 0 980 0C1008.47 0 1011.99 -10.79 1036.95 0C1081.99 19.46 1079.52 60.49 1120 60.49C1157.07 60.49 1151.41 17.56 1192.06 0C1221.41 -12.68 1226.03 0 1260 0C1324.16 0 1330.16 -9.69 1388.33 0C1400.16 1.97 1393.34 23.33 1400 23.33C1407.25 23.33 1403.1 2.17 1416.15 0C1473.1 -9.49 1510.93 -32.86 1540 0C1572.86 37.14 1540 70 1540 140C1540 170 1552.63 174.74 1540 200C1517.63 244.74 1470 240.89 1470 280C1470 317.02 1519.08 310.43 1540 352.26C1554.08 380.43 1540 386.13 1540 420C1540 490 1561.18 511.18 1540 560C1530.82 581.18 1504.89 572.67 1479.28 560C1434.89 538.04 1438.57 490.74 1400 490.74C1363.93 490.74 1370.92 539.76 1330 560C1300.92 574.39 1295 560 1260 560C1190 560 1120 586.95 1120 560C1120 523.68 1190.36 497.1 1260 433.46C1266.96 427.1 1270.73 428.94 1273.21 420C1292.03 352.21 1306.84 346.65 1302.61 280C1300.23 242.47 1293.35 224.27 1260 211.63C1202.04 189.66 1185.51 193.77 1120 210.77C1053.74 227.96 998.97 233.85 996.47 280C993.3 338.47 1074.01 341.48 1108.65 420C1135.77 481.48 1152.22 524.94 1120 560C1087.89 594.94 1050 560 980 560C971.76 560 971.5 561.96 963.53 560C901.5 544.74 900.4 525.57 840 525.57C801.13 525.57 804.16 550.37 765 560C734.16 567.58 732.5 560 700 560C681.43 560 668.44 574.6 662.86 560C641.68 504.6 676.35 476.2 646.47 420C624.92 379.47 603.02 393.62 560 366.55C491.78 323.62 424 319.2 424 280C424 243.32 499.67 257.28 560 214.79C599.05 187.28 613.79 183.89 622.76 140" stroke="rgba(51, 121, 194, 0.58)" stroke-width="2"></path>
        <path d="M0 317.61C41.15 299.72 68.65 351.59 140 359.13C208.65 366.38 216.61 330.72 280 347.2C333.68 361.16 362.85 372.34 374.14 420C388.05 478.74 365.43 507.9 330.4 560C318.36 577.9 305.2 560 280 560C263.42 560 261.33 567.12 246.84 560C191.33 532.71 188.13 491.19 140 491.19C106.12 491.19 119.17 542.13 82.82 560C49.17 576.54 15.39 586.02 0 560C-26.02 516.02 0 490 0 420C0 368.81 -28.85 330.15 0 317.61" stroke="rgba(253, 223, 53, 1)" stroke-width="2"></path>
        <path d="M93.33 140C93.33 118.43 108.81 99.89 140 82.35C202.15 47.39 237.46 18.16 280 35C310.26 46.98 285.6 88.45 285.6 140C285.6 144.23 284.22 146.16 280 146.56C211.42 153.06 209.28 156.23 140 153.8C115.95 152.95 93.33 154.15 93.33 140" stroke="rgba(253, 223, 53, 1)" stroke-width="2"></path>
        <path d="M23.33 0C23.33 4.86 7.29 17.5 0 17.5C-4.37 17.5 -5 3.75 0 0C6.67 -5 23.33 -3.89 23.33 0" stroke="rgba(253, 223, 53, 1)" stroke-width="2"></path>
        <path d="M662.99 140C689.26 78.66 657.07 58.55 672.55 0C675.58 -11.45 686.28 0 700 0C713.46 0 721.04 -10.74 726.92 0C759.37 59.26 741.39 76.57 776.67 140C797.93 178.24 808.34 171.66 840 203.33C878.34 241.66 882.57 238.19 916.67 280C952.57 324.03 947.42 328.15 980 375C996.11 398.15 1014.05 398.06 1014.05 420C1014.05 440.25 1003.55 452.86 980 459.38C916.53 476.96 906.52 479.63 840 468.2C791.97 459.94 788.66 451.87 750.91 420C718.66 392.77 735.27 371.63 700 350C639.81 313.09 628.28 330.07 560 302.91C540.28 295.07 524 290.38 524 280C524 270.29 546.14 276.7 560 262.74C615.63 206.7 632.99 210.03 662.99 140" stroke="rgba(51, 121, 194, 0.58)" stroke-width="2"></path>
        <path d="M997.5 140C997.5 122.77 1058.75 103.7 1120 103.7C1181.25 103.7 1242.5 122.77 1242.5 140C1242.5 157.08 1181.25 172.31 1120 172.31C1058.75 172.31 997.5 157.08 997.5 140" stroke="rgba(253, 223, 53, 1)" stroke-width="2"></path>
        <path d="M1260 101.82C1248.29 101.82 1243.53 43.9 1243.53 0C1243.53 -7.01 1251.76 0 1260 0C1275.55 0 1291.11 -11.51 1291.11 0C1291.11 39.4 1272.08 101.82 1260 101.82" stroke="rgba(253, 223, 53, 1)" stroke-width="2"></path>
        <path d="M1466.67 140C1466.67 95.66 1520.18 21.54 1540 21.54C1556.85 21.54 1540 80.77 1540 140C1540 149.17 1547.16 158.33 1540 158.33C1510.49 158.33 1466.67 164.06 1466.67 140" stroke="rgba(51, 121, 194, 0.58)" stroke-width="2"></path>
        <path d="M1353.33 280C1366.53 228.37 1379.47 182.42 1400 182.42C1419.58 182.42 1405.35 238.22 1433.54 280C1475.35 341.95 1495.52 331.4 1540 389.89C1548.75 401.4 1540 404.94 1540 420C1540 490 1548.19 498.19 1540 560C1538.91 568.19 1528.67 565.47 1521.45 560C1458.67 512.42 1463.65 502.8 1400 453.89C1372.55 432.8 1346.97 448.76 1339.25 420C1323.63 361.82 1336.16 347.16 1353.33 280" stroke="rgba(51, 121, 194, 0.58)" stroke-width="2"></path>
        <path d="M0 369.85C52.07 366.08 68.85 403.76 140 409.86C208.85 415.77 213.32 389.98 280 393.87C300.21 395.05 313.79 403.2 313.79 420C313.79 448.93 308.61 483.38 280 485.33C221.71 489.31 198.36 414.18 140 431.86C75.12 451.52 91.8 506.66 33.52 560C21.8 570.73 3.24 573.52 0 560C-13.52 503.52 0 490 0 420C0 394.92 -17.93 371.15 0 369.85" stroke="rgba(51, 121, 194, 0.58)" stroke-width="2"></path>
        <path d="M1194.47 560C1194.47 543 1232.17 500.77 1260 500.77C1281.32 500.77 1292.77 540.05 1292.77 560C1292.77 569.66 1276.39 560 1260 560C1227.24 560 1194.47 572.61 1194.47 560" stroke="rgba(253, 223, 53, 1)" stroke-width="2"></path>
    </g>
    <defs>
        <mask id="SvgjsMask1003">
            <rect width="1440" height="560" fill="#ffffff"></rect>
        </mask>
        <style>
          .all {
            opacity: 0.8;
          }
          </style>
    </defs>
</svg>