<svg xmlns="http://www.w3.org/2000/svg" version="1.1" xmlns:xlink="http://www.w3.org/1999/xlink" xmlns:svgjs="http://svgjs.com/svgjs" width="1440" height="560" preserveAspectRatio="none" viewBox="0 0 1440 560">
    <g mask="url(&quot;#SvgjsMask1032&quot;)" fill="none">
        <path d="M1120 242.31C1079.78 242.31 1030.91 260.38 1030.91 280C1030.91 299.93 1080.33 321.41 1120 321.41C1141.39 321.41 1153.03 300.32 1153.03 280C1153.03 260.77 1140.84 242.31 1120 242.31" stroke="rgba(226, 144, 51, 1)" stroke-width="2"></path>
        <path d="M140 358.4C111.79 358.4 92.62 391.09 92.62 420C92.62 444.21 113.22 464.64 140 464.64C179.69 464.64 225.56 445.39 225.56 420C225.56 392.27 178.26 358.4 140 358.4" stroke="rgba(226, 144, 51, 1)" stroke-width="2"></path>
        <path d="M0 31.93C20.62 31.93 75.12 89.2 75.12 140C75.12 181.26 21.95 216.05 0 216.05C-15.61 216.05 0 178.02 0 140C0 85.97 -16.94 31.93 0 31.93" stroke="rgba(226, 144, 51, 1)" stroke-width="2"></path>
        <path d="M258.22 140C258.22 128.14 269.62 121.15 280 121.15C289.26 121.15 297.5 128.78 297.5 140C297.5 162.7 289.67 189 280 189C270.03 189 258.22 162.07 258.22 140" stroke="rgba(78, 167, 189, 1)" stroke-width="2"></path>
        <path d="M420 58.33C383.21 39.61 358.75 16.92 358.75 0C358.75 -12.25 389.38 0 420 0C490 0 490 0 560 0C600.84 0 641.67 -19.66 641.67 0C641.67 31.53 612.27 88.64 560 102.39C501.43 117.8 483.84 90.81 420 58.33" stroke="rgba(78, 167, 189, 1)" stroke-width="2"></path>
        <path d="M840 124.78C798.14 66.48 764.47 41.1 764.47 0C764.47 -21.29 802.24 0 840 0C910 0 910 0 980 0C1050 0 1050 0 1120 0C1154.43 0 1165.16 -19.33 1188.85 0C1235.16 37.78 1208.7 80.2 1260 114.21C1314.27 150.2 1330 127.11 1400 140C1400 140 1400 140 1400 140C1470 158.96 1498.91 136.83 1540 177.92C1568.91 206.83 1540 228.96 1540 280C1540 342.82 1572.68 383.66 1540 405.64C1502.68 430.75 1463.9 369.22 1400 374.18C1371.4 376.4 1373.5 393.94 1355 420C1307.54 486.85 1313.36 493.27 1268.08 560C1265.86 563.27 1264.04 560 1260 560C1252.5 560 1251.63 563.32 1245 560C1181.63 528.32 1180.28 528.43 1120 490C1070.49 458.43 1025.41 451.29 1025.41 420C1025.41 391.64 1080.02 404.23 1120 370.7C1163.49 334.23 1192.36 324.51 1192.36 280C1192.36 237.88 1166 208.39 1120 197.44C1059.82 183.11 1041.91 200.84 980 229.44C952.55 242.12 946.33 250.23 941.28 280C930.17 345.51 935.53 352.03 947.69 420C954.89 460.21 961.04 459.64 980 496.36C997.19 529.64 1020 539.23 1020 560C1020 571.05 1000 560 980 560C910 560 910 560 840 560C811.43 560 804.94 574.55 782.86 560C734.94 528.42 747.22 506.54 700 467.73C662.04 436.54 639.1 457.96 612.5 420C573.34 364.1 547.94 336.57 568.48 280C591.69 216.1 626.78 211.98 700 179.07C762.54 150.96 772.23 174 840 157.95C854.73 154.46 865 148.5 865 140C865 131.92 848.4 136.48 840 124.78" stroke="rgba(78, 167, 189, 1)" stroke-width="2"></path>
        <path d="M1400 140C1359.33 129.82 1363.33 55.85 1363.33 0C1363.33 -14.15 1381.66 0 1400 0C1470 0 1486.8 -16.8 1540 0C1556.8 5.31 1554.47 29.74 1540 44.21C1484.47 99.74 1447.67 151.93 1400 140" stroke="rgba(78, 167, 189, 1)" stroke-width="2"></path>
        <path d="M129.5 280C129.5 275.14 133.71 269.76 140 269.76C152.08 269.76 166.25 275.29 166.25 280C166.25 284.61 152.35 288.4 140 288.4C133.97 288.4 129.5 284.46 129.5 280" stroke="rgba(69, 138, 221, 1)" stroke-width="2"></path>
        <path d="M319.57 280C319.57 247.39 368.26 223.66 420 223.66C484.48 223.66 552 246.7 552 280C552 316.12 483.33 362.5 420 362.5C367.12 362.5 319.57 316.81 319.57 280" stroke="rgba(215, 100, 44, 1)" stroke-width="2"></path>
        <path d="M0 374.18C10.99 374.18 38.77 395.18 38.77 420C38.77 453.09 10.34 490 0 490C-9.05 490 0 455 0 420C0 397.09 -8.39 374.18 0 374.18" stroke="rgba(226, 144, 51, 1)" stroke-width="2"></path>
        <path d="M63 560C63 548.03 97.87 522.61 140 515.36C206.37 503.94 212.55 534.4 280 522.67C352.55 510.05 350.2 466.09 420 466.67C490.2 467.25 498.57 487.56 560 525C575.14 534.23 573.13 547.05 573.13 560C573.13 564.55 566.57 560 560 560C490 560 490 560 420 560C350 560 350 560 280 560C210 560 210 560 140 560C101.5 560 63 570.35 63 560" stroke="rgba(69, 138, 221, 1)" stroke-width="2"></path>
        <path d="M0 93.33C8.91 93.33 32.44 118.06 32.44 140C32.44 157.82 9.48 172.84 0 172.84C-6.74 172.84 0 156.42 0 140C0 116.66 -7.31 93.33 0 93.33" stroke="rgba(69, 138, 221, 1)" stroke-width="2"></path>
        <path d="M420 16.67C408.68 13.07 402.5 4.83 402.5 0C402.5 -3.5 411.25 0 420 0C490 0 490 0 560 0C580 0 600 -9.63 600 0C600 15.44 587.74 47.58 560 50.15C497.74 55.92 487.43 38.14 420 16.67" stroke="rgba(215, 100, 44, 1)" stroke-width="2"></path>
        <path d="M840 48.7C819.71 48.7 810.53 16.04 810.53 0C810.53 -8.31 825.26 0 840 0C877.34 0 914.67 -11.1 914.67 0C914.67 13.25 871.78 48.7 840 48.7" stroke="rgba(215, 100, 44, 1)" stroke-width="2"></path>
        <path d="M1011.11 140C1000.25 95.03 1039.04 56.73 1083.16 0C1093.48 -13.27 1101.58 0 1120 0C1125.74 0 1130.02 -5.21 1131.48 0C1149.62 64.79 1163.66 80.8 1159.2 140C1157.92 157.08 1140.21 152.56 1120 152.56C1066.17 152.56 1018.67 171.31 1011.11 140" stroke="rgba(215, 100, 44, 1)" stroke-width="2"></path>
        <path d="M395.65 280C395.65 272.09 407.46 266.34 420 266.34C435.63 266.34 452 271.93 452 280C452 288.76 435.35 300 420 300C407.18 300 395.65 288.92 395.65 280" stroke="rgba(226, 144, 51, 1)" stroke-width="2"></path>
        <path d="M1231.69 280C1252.45 248.86 1230.8 217.88 1260 210C1314.96 195.17 1329.7 224.34 1400 234.59C1469.7 244.75 1482 232.02 1540 250.83C1552 254.72 1540 265.41 1540 280C1540 297.95 1554.28 312.78 1540 315.9C1484.28 328.06 1459.07 285.71 1400 310.55C1335.32 337.76 1342.51 362.33 1292.5 420C1272.51 443.05 1285.11 472 1260 472C1198.86 472 1126.44 463.65 1120 420C1112.28 367.65 1182.45 353.86 1231.69 280" stroke="rgba(78, 167, 189, 1)" stroke-width="2"></path>
        <path d="M350 560C350 548.51 385.11 517.39 420 517.39C454.3 517.39 488.37 548.48 488.37 560C488.37 569.78 454.18 560 420 560C385 560 350 569.81 350 560" stroke="rgba(78, 167, 189, 1)" stroke-width="2"></path>
    </g>
    <defs>
        <mask id="SvgjsMask1032">
            <rect width="1440" height="560" fill="#ffffff"></rect>
        </mask>
        <style>
        svg { 
          opacity: 1;
        }
        </style>
    </defs>
</svg>