<?xml version="1.0" encoding="UTF-8"?>
<svg fill="white" id="Ebene_1" data-name="Ebene 1" xmlns="http://www.w3.org/2000/svg" viewBox="0 0 292.14 59.53">
  <defs>
    <style>
      .a{fill:currentColor}
    </style>
  </defs>
  <path  d="M3.25,22.84c0-2.62-.18-4.25-.55-4.89-.36-.64-1.04-1.02-2.02-1.14,0,0-.27-1.34,0-1.66,2.39-2.74,11.67-4.36,14.41-1.97,4.33,3.78,0,22.97,0,22.97,0,2.9,.25,4.79,.77,5.67,.51,.89,1.44,1.47,2.8,1.77,0,0,.28,1.31,0,1.59-3.28,3.28-15.26,3.28-18.53,0-.28-.28,0-1.59,0-1.59,1.15-.12,1.95-.51,2.42-1.16,.47-.65,.7-2.01,.7-4.09v-15.5ZM9.47,0c1.71,0,3.19,.59,4.44,1.77,1.25,1.18,1.88,2.56,1.88,4.14s-.61,2.94-1.83,4.06-2.71,1.69-4.48,1.69-3.26-.56-4.47-1.69c-1.21-1.12-1.81-2.48-1.81-4.06s.61-3.02,1.83-4.17S7.72,0,9.47,0Z"/>
  <path  d="M59.43,45.19v-1.59c1.23-.21,2.09-.72,2.58-1.55,.49-.82,.73-2.32,.73-4.48v-12.22c0-2.15-.22-3.65-.66-4.52-.44-.86-1.18-1.3-2.22-1.3-1.67,0-2.96,.93-3.88,2.8-.92,1.86-1.38,4.52-1.38,7.95v5.88c0,2.98,.22,4.9,.67,5.77,.45,.87,1.28,1.42,2.48,1.67v1.59h-18.19v-1.59c1.23-.21,2.09-.72,2.59-1.55,.5-.82,.75-2.32,.75-4.48v-12.22c0-2.1-.23-3.6-.69-4.48-.46-.89-1.22-1.33-2.28-1.33-1.67,0-2.96,.93-3.88,2.8-.92,1.86-1.38,4.52-1.38,7.95v5.88c0,2.92,.23,4.82,.69,5.7,.46,.89,1.3,1.46,2.53,1.73v1.59H19.93l.03-1.59c1.1-.15,1.88-.52,2.33-1.12,.45-.6,.67-1.98,.67-4.12V21.12c0-2.02-.25-3.4-.73-4.12-.49-.73-1.37-1.17-2.64-1.31,0,0-.3-1.3-.03-1.59,2.33-2.54,10.76-2.62,13.75-.91,.73,.42,.68,1.6,.92,2.56,.24,.96,.42,2.04,.55,3.25,1.62-2.1,3.41-3.67,5.36-4.7,1.95-1.03,4.11-1.55,6.48-1.55,2.17,0,3.88,.47,5.12,1.41s2.17,2.45,2.75,4.53c1.88-2.06,3.78-3.57,5.7-4.52,1.93-.95,4.04-1.42,6.33-1.42,2.96,0,5.03,.78,6.22,2.34s1.78,4.43,1.78,8.59v13.25c0,2.58,.24,4.29,.73,5.11,.49,.82,1.4,1.34,2.73,1.55v1.59h-18.56Z"/>
  <path  d="M81.33,25.03c-1.93-2.14-1.25-9.98,1.22-11.47,.1-.06,.26,.09,.47,.16,1.15,.38,1.91,.56,2.28,.56,.29,0,1.79-.33,4.5-1,2.71-.67,5.3-1,7.78-1,1.98,0,3.83,.16,5.55,.48,1.72,.32,3.09,.77,4.11,1.33,1.42,.75,2.41,1.7,2.98,2.84,.57,1.15,.86,3.07,.86,5.78v13.91c0,2.35,.31,3.97,.92,4.86,.61,.89,2.32,.76,3.3,2.11,.23,.32,.28,1.31,0,1.59-2.45,2.45-13.88,0-13.88,0-.42-.48-.77-1.04-1.05-1.69-.28-.65-.52-1.45-.7-2.41-1.19,1.69-2.72,2.94-4.59,3.77s-4.11,1.23-6.72,1.23c-3.12,0-5.58-.77-7.38-2.3-1.79-1.53-2.69-3.61-2.69-6.23,0-3.54,1.68-6.45,5.03-8.73,3.35-2.28,8.57-4.04,15.66-5.27v-1.94c0-1.6-.43-2.79-1.3-3.56-.86-.77-2.2-1.16-4.02-1.16-2.58,0-4.83,.72-6.75,2.16-1.92,1.44-3.27,3.43-4.06,5.97,0,0-1.28,.28-1.53,0Zm17.66,2.56c-2.98,.81-5.18,1.88-6.59,3.2-1.42,1.32-2.12,2.98-2.12,4.98,0,1.04,.3,1.89,.89,2.55s1.35,.98,2.27,.98c1.77,0,3.14-.8,4.11-2.41,.97-1.6,1.45-3.9,1.45-6.88v-2.44Z"/>
  <path  d="M119.55,22.84c0-2.62-.18-4.25-.55-4.89-.36-.64-1.04-1.02-2.02-1.14,0,0-.27-1.34,0-1.66,2.39-2.74,11.67-4.36,14.41-1.97,4.33,3.78,0,22.97,0,22.97,0,2.9,.25,4.79,.77,5.67,.51,.89,1.93,.69,2.8,1.77,.25,.31,.28,1.31,0,1.59-3.28,3.28-15.26,3.28-18.53,0-.28-.28-.27-1.3,0-1.59,.77-.86,1.95-.51,2.42-1.16,.47-.65,.7-2.01,.7-4.09v-15.5ZM125.77,0c1.71,0,3.19,.59,4.44,1.77,1.25,1.18,1.88,2.56,1.88,4.14s-.61,2.94-1.83,4.06-2.71,1.69-4.48,1.69-3.26-.56-4.47-1.69c-1.21-1.12-1.81-2.48-1.81-4.06s.61-3.02,1.83-4.17,2.7-1.73,4.45-1.73Z"/>
  <path  d="M135.48,53.56c-.39-2.5,3.49-7.56,5.94-8.19,.41-.11,1.53,.72,1.53,.72-.21,.44-.36,.83-.47,1.17-.1,.34-.16,.65-.16,.92,0,1.94,1.05,3.47,3.16,4.59,2.1,1.12,4.98,1.69,8.62,1.69,2.77,0,5.01-.5,6.72-1.48,1.71-.99,2.56-2.27,2.56-3.83,0-1.02-.28-1.8-.84-2.34-.56-.54-1.48-.92-2.75-1.12-.54-.06-1.95-.12-4.23-.19s-4.25-.23-5.89-.5c-4-.62-7.29-2.45-9.88-5.47-2.58-3.02-3.88-6.51-3.88-10.47,0-5.29,1.62-9.26,4.86-11.91,3.24-2.65,8.11-3.97,14.61-3.97h18.87s.27,1.3,0,1.59c-.9,.99-2.24,.48-2.73,1.06-.49,.58-.73,1.88-.73,3.88v15.88c0,1.67,.08,2.78,.25,3.34s.62,1.29,1.34,2.19c.12,.17,.29,.37,.5,.59,1.73,2.04,2.59,3.93,2.59,5.66,0,3.54-1.93,6.45-5.8,8.73s-8.85,3.42-14.95,3.42c-3.79,0-7.26-.49-10.41-1.47-3.15-.98-8.32-1.13-8.84-4.5Zm23.47-16.94V17.34c-.21-.02-.49-.04-.84-.06-.62-.04-1.02-.06-1.19-.06-2.58,0-4.64,1.11-6.16,3.33-1.52,2.22-2.28,5.25-2.28,9.08,0,3.42,.6,6.1,1.81,8.05,1.21,1.95,2.86,2.92,4.97,2.92,1.25,0,2.18-.33,2.78-.98,.6-.66,.91-1.65,.91-2.98Z"/>
  <path  d="M188.85,30.09c.54,3.29,1.77,5.86,3.67,7.72,1.91,1.85,4.31,2.78,7.2,2.78,2.33,0,4.34-.66,6.02-1.97,1.68-1.31,3.07-3.3,4.17-5.97,0,0,1.46-.04,1.72,.31,1.97,2.63-.5,9.59-3.19,11.49-.37,.27-1.58,1.01-2,1s-.72,.04-1.09,.04c-.65,0-1.9,.11-3.77,.33-1.87,.22-3.42,.33-4.67,.33-6.27,0-11.4-1.66-15.39-4.97-3.99-3.31-5.98-7.5-5.98-12.56,0-4.69,1.8-8.58,5.39-11.69,3.59-3.1,8.19-4.66,13.8-4.66,4.25,0,7.7,.98,10.34,2.94,2.65,1.96,4.79,5.12,6.44,9.5l-22.66,5.38Zm10.19-6.53c-.35-2.08-.97-3.67-1.86-4.77-.89-1.09-2-1.64-3.33-1.64-1.52,0-2.81,.63-3.86,1.89-1.05,1.26-1.58,2.85-1.58,4.77,0,.23,.02,.75,.06,1.56,.02,.31,.04,.56,.06,.75l10.5-2.56Z"/>
  <path  d="M236.05,44.19m15.19-1.93c.04,2.05,2.46,2.95,4.82,1.97,1.83-.76,3.35-2.08,4.6-3.62,3.58-4.41,5.85-9.86,6.48-15.51,.45-4.08,.09-8.34,1.58-12.16,1.43-3.65,4.6-6.61,8.39-7.63s8.08-.04,10.95,2.63c2.94,2.74,4.2,6.94,4.07,10.95s-1.49,7.88-3.15,11.54c-3.34,7.38-7.96,10.29-14.54,15.03-6.9,4.97-14,7-22.11,5.76-3.83-.58-17.37-4.02-16.68-8.63,1.04-.16,2.19-.68,2.76-1.6,.53-.85,.8-2.33,.8-4.44v-12.22c0-2.15-.25-3.65-.73-4.52-.49-.86-1.33-1.3-2.52-1.3-1.92,0-3.39,.92-4.42,2.77s-1.55,4.51-1.55,7.98v5.88c0,2.85,.25,4.73,.77,5.64,.51,.91,1.45,1.51,2.83,1.8,0,0,.28,1.31,0,1.59-3.27,3.27-15.23,3.27-18.5,0-.28-.28,0-1.59,0-1.59,1.17-.08,1.97-.47,2.42-1.17,.45-.7,.67-2.06,.67-4.08V20.12c0-2.02-.25-3.4-.73-4.12-.49-.73-1.37-1.17-2.64-1.31,0,0-.3-1.3-.03-1.59,2.33-2.54,10.76-2.62,13.75-.91,.73,.42,.68,1.6,.92,2.56,.24,.96,.42,2.04,.55,3.25,1.9-2.17,3.85-3.75,5.86-4.75,2.01-1,4.27-1.5,6.77-1.5,3.12,0,5.31,.78,6.56,2.33,1.25,1.55,1.88,4.42,1.88,8.61v13.25"/>
</svg>